<?xml version="1.0" standalone="no"?>
<!DOCTYPE svg PUBLIC "-//W3C//DTD SVG 20010904//EN"
 "http://www.w3.org/TR/2001/REC-SVG-20010904/DTD/svg10.dtd">
<svg version="1.0" xmlns="http://www.w3.org/2000/svg"
 width="1375.000000pt" height="369.000000pt" viewBox="0 0 1375.000000 369.000000"
 preserveAspectRatio="xMidYMid meet">

<g transform="translate(0.000000,369.000000) scale(0.100000,-0.100000)"
fill="#000000" stroke="none">
<path d="M11315 3459 c-154 -45 -278 -87 -288 -97 -25 -25 -140 -437 -253
-902 -52 -217 -115 -472 -140 -566 -24 -94 -44 -180 -44 -191 0 -46 29 -62
213 -113 98 -28 190 -50 206 -50 53 0 64 24 111 234 l44 196 267 0 268 0 64
-122 c35 -68 72 -154 82 -192 21 -81 42 -106 88 -106 17 0 132 20 254 44 239
46 263 56 263 108 0 18 -74 174 -194 411 l-194 382 -112 330 c-100 297 -120
347 -201 500 -86 161 -125 216 -152 214 -7 0 -133 -36 -282 -80z m145 -249 c0
-5 -4 -10 -9 -10 -6 0 -13 5 -16 10 -3 6 1 10 9 10 9 0 16 -4 16 -10z m40 -69
c0 -6 -4 -13 -10 -16 -5 -3 -10 1 -10 9 0 9 5 16 10 16 6 0 10 -4 10 -9z m170
-221 c0 -5 -4 -10 -10 -10 -5 0 -10 5 -10 10 0 6 5 10 10 10 6 0 10 -4 10 -10z
m-616 -45 c86 -18 118 -44 109 -89 -8 -41 -7 -41 -36 -12 -15 15 -43 28 -66
32 -23 4 -41 10 -41 14 0 13 -58 32 -71 24 -9 -5 -10 -2 -6 10 4 10 7 22 7 27
0 12 23 11 104 -6z m746 -45 c0 -5 -4 -10 -10 -10 -5 0 -10 5 -10 10 0 6 5 10
10 10 6 0 10 -4 10 -10z m-749 -79 c14 -10 35 -21 49 -23 29 -4 39 -28 11 -28
-11 0 -23 -4 -26 -10 -3 -5 -31 -10 -62 -10 -44 0 -61 -5 -85 -25 -49 -42 -56
-35 -37 40 9 36 15 44 33 43 11 0 35 7 51 16 37 20 37 20 66 -3z m393 -89 c55
-111 106 -228 106 -245 0 -12 -259 -2 -271 10 -7 7 30 133 96 331 2 6 7 12 10
12 2 0 29 -49 59 -108z m-315 -54 c-4 -24 -8 -48 -9 -54 0 -6 -16 -18 -35 -27
-45 -21 -72 -61 -55 -82 7 -8 28 -17 47 -21 24 -5 33 -11 29 -21 -3 -8 -6 -50
-6 -94 l0 -79 -32 -14 c-18 -8 -59 -19 -90 -26 -49 -10 -59 -15 -64 -36 -4
-14 -19 -31 -35 -40 -16 -8 -29 -21 -29 -29 0 -17 -22 -30 -67 -40 -27 -5 -33
-4 -33 10 0 9 25 119 55 243 30 125 57 237 60 250 3 12 11 22 18 22 8 0 24 11
37 25 21 23 31 25 106 25 60 0 85 4 94 15 18 21 18 20 9 -27z m66 -58 c3 -5
-1 -10 -9 -10 -9 0 -16 5 -16 10 0 6 4 10 9 10 6 0 13 -4 16 -10z m505 -106
c0 -8 -5 -12 -10 -9 -6 4 -8 11 -5 16 9 14 15 11 15 -7z m-523 -76 c-3 -8 -6
-5 -6 6 -1 11 2 17 5 13 3 -3 4 -12 1 -19z m55 -20 c-7 -7 -12 -19 -12 -27 1
-9 7 -4 16 12 14 25 20 28 52 23 20 -3 61 -8 90 -12 46 -5 55 -10 63 -33 14
-36 -4 -94 -38 -120 -34 -28 -77 -26 -128 4 -48 27 -75 75 -75 129 0 30 3 36
22 36 17 0 19 -3 10 -12z m291 -15 c-7 -2 -21 -2 -30 0 -10 3 -4 5 12 5 17 0
24 -2 18 -5z m355 -65 c101 -68 242 -188 309 -263 31 -35 61 -62 65 -59 4 3
11 -2 15 -12 3 -9 21 -42 40 -72 18 -31 33 -59 33 -63 0 -4 -25 18 -55 49
l-55 57 -21 -25 -21 -24 29 -10 c15 -5 44 -23 64 -41 20 -18 44 -37 54 -42 36
-21 -7 -83 -57 -83 -17 0 -28 3 -25 7 4 3 1 13 -7 22 -7 9 -19 33 -26 54 -6
20 -16 37 -21 37 -5 0 -9 10 -9 23 -1 21 -1 21 -12 3 -6 -11 -9 -48 -6 -92 4
-54 2 -74 -7 -74 -8 0 -13 23 -14 69 l-2 69 -100 99 c-175 171 -299 334 -299
393 0 53 22 50 128 -22z m-181 -226 c-33 -4 -57 3 -57 17 0 16 54 17 71 1 14
-14 13 -15 -14 -18z m683 -334 c0 -5 -7 -8 -15 -8 -17 0 -18 2 -9 25 5 13 8
14 15 3 5 -7 9 -16 9 -20z"/>
<path d="M11406 2302 c3 -16 -1 -45 -10 -68 l-16 -39 20 24 c21 25 28 95 10
106 -6 4 -7 -5 -4 -23z"/>
<path d="M11790 2258 c0 -16 99 -146 189 -250 71 -81 181 -185 181 -170 0 5
12 26 26 47 l25 38 -53 55 c-56 58 -285 245 -337 275 -23 14 -31 15 -31 5z"/>
<path d="M7868 3512 c-62 -17 -467 -189 -480 -204 -9 -10 -34 -70 -55 -133
-20 -63 -38 -113 -40 -111 -2 1 4 65 12 141 9 76 13 146 10 155 -12 39 -43 49
-277 94 -255 49 -280 49 -298 2 -5 -13 -11 -203 -15 -423 -3 -219 -8 -431 -11
-472 l-6 -73 -60 58 c-33 33 -133 149 -221 259 -213 264 -472 557 -506 572
-23 10 -42 6 -131 -23 -58 -19 -150 -41 -205 -50 -55 -8 -112 -20 -127 -25
-47 -19 -52 -49 -46 -292 5 -201 4 -217 -9 -172 -7 28 -46 116 -85 197 l-72
148 -219 151 c-121 83 -232 155 -248 159 -15 5 -115 12 -221 15 l-193 7 -199
-52 -198 -52 -160 -101 -159 -102 -96 -169 -96 -169 -17 -201 c-9 -111 -19
-194 -23 -186 -15 36 -40 158 -102 490 -36 195 -70 376 -76 403 -15 65 -35 77
-134 77 -45 0 -145 9 -224 20 -152 21 -169 19 -195 -23 -7 -12 -42 -119 -75
-237 -59 -204 -200 -661 -206 -668 -9 -10 -187 353 -301 613 -91 206 -140 306
-156 318 -23 17 -29 18 -114 2 -69 -13 -115 -16 -207 -10 -135 8 -162 -1 -172
-57 -3 -18 -28 -269 -55 -558 -45 -478 -55 -556 -111 -868 l-62 -343 20 -27
20 -27 249 -3 c137 -1 259 0 271 3 12 3 28 15 34 27 7 13 19 153 30 342 10
177 21 362 25 411 l7 90 34 -75 c19 -41 93 -217 165 -390 71 -173 139 -323
150 -332 11 -10 32 -18 47 -18 42 1 411 106 427 122 8 8 52 147 98 309 46 162
86 287 88 279 3 -8 25 -114 48 -235 75 -383 105 -513 125 -535 22 -24 59 -25
200 -5 55 8 144 15 198 15 90 0 100 2 122 25 14 13 25 32 25 41 0 9 -18 93
-41 186 -23 93 -39 171 -38 173 2 2 36 -32 74 -76 62 -69 90 -90 236 -178
l166 -100 227 -43 227 -42 182 26 182 26 190 93 190 94 95 162 c100 170 117
194 107 153 -3 -14 -9 -129 -13 -256 -7 -225 -6 -232 14 -252 24 -24 49 -27
312 -42 175 -10 185 -10 210 8 l25 19 -3 456 c-2 250 0 457 5 460 18 12 395
-414 583 -659 252 -327 232 -307 300 -300 101 11 382 82 395 100 12 16 17 121
31 780 l7 290 60 -120 c32 -65 66 -127 75 -137 14 -16 468 -170 772 -262 163
-50 184 -71 103 -106 -43 -19 -61 -20 -178 -14 -82 4 -197 19 -310 41 -206 40
-390 65 -414 57 -46 -16 -51 -32 -51 -143 0 -58 -7 -154 -15 -213 -22 -156
-24 -154 160 -205 82 -23 171 -38 350 -57 133 -14 261 -25 285 -25 25 1 145
22 267 49 252 55 211 34 448 228 l120 99 3 202 2 201 -140 123 -141 123 -157
53 c-109 36 -216 63 -351 88 l-194 36 -78 65 c-44 37 -79 71 -79 77 0 6 14 34
30 63 33 57 20 52 180 71 98 12 371 -46 595 -127 94 -33 180 -61 191 -61 46 0
66 31 90 141 l22 104 1 -62 c1 -34 6 -73 12 -86 21 -46 39 -48 346 -37 158 6
287 9 289 8 1 -2 6 -118 11 -258 8 -256 1 -818 -12 -963 -7 -68 -5 -80 11 -98
17 -19 29 -20 154 -18 74 1 196 -2 271 -6 131 -7 137 -7 158 14 26 26 26 20 2
316 -27 322 -55 950 -47 1008 l7 47 102 0 c57 0 183 -7 281 -15 205 -17 218
-14 235 52 21 82 55 424 45 441 -25 40 -39 41 -544 19 -422 -17 -536 -19 -875
-10 -280 7 -397 7 -415 -1 -14 -6 -32 -25 -40 -42 l-15 -30 -250 63 c-242 62
-259 65 -507 86 -141 13 -262 21 -270 19z m303 -91 c173 -16 227 -26 453 -82
201 -50 256 -67 256 -80 0 -19 -69 -361 -74 -366 -1 -2 -81 24 -177 57 -113
40 -238 74 -354 99 l-180 37 -136 -14 -135 -15 -54 -99 c-48 -89 -55 -98 -67
-82 -34 47 5 156 133 380 13 22 21 43 18 47 -10 10 17 78 28 71 6 -4 8 -2 4 4
-3 6 -1 22 5 36 15 32 14 32 280 7z m-3581 -6 c160 -7 189 -14 244 -58 l28
-23 -23 -95 c-13 -51 -24 -96 -26 -97 -1 -2 -49 7 -108 21 -118 28 -128 25
-140 -35 -14 -70 -6 -68 -112 -37 -53 15 -100 32 -104 36 -5 5 1 37 13 72 26
77 31 72 -110 121 -121 42 -129 39 -155 -45 -9 -32 -19 -61 -22 -63 -4 -5
-113 37 -132 51 -7 5 -17 6 -23 2 -5 -3 -10 -4 -10 -2 0 2 19 17 43 33 30 20
100 43 242 81 110 28 209 50 220 48 11 -2 90 -7 175 -10z m-1532 -60 c2 -1 -4
-30 -12 -63 -30 -114 -23 -125 94 -165 l75 -26 27 -128 c14 -70 26 -141 27
-158 l1 -30 -18 35 c-24 50 -123 145 -179 174 -112 56 -225 71 -298 37 -77
-35 -113 -76 -139 -159 -11 -32 8 -28 71 18 31 22 58 39 60 37 1 -2 -6 -22
-17 -45 -61 -126 -36 -250 69 -345 23 -20 41 -40 41 -43 0 -3 -14 -51 -31
-105 l-31 -100 -73 6 c-87 7 -91 4 -125 -110 -12 -39 -23 -76 -25 -83 -7 -19
-39 0 -105 62 -30 28 -68 61 -85 73 -30 22 -30 22 -12 51 9 17 18 42 19 57 2
24 4 24 15 9 16 -21 15 -22 35 46 9 30 55 179 102 330 46 151 108 356 137 455
28 99 55 187 60 196 7 14 22 14 161 -4 84 -10 154 -20 156 -22z m3749 13 c-3
-7 -5 -2 -5 12 0 14 2 19 5 13 2 -7 2 -19 0 -25z m-4771 -256 c66 -152 119
-279 117 -281 -7 -9 -75 66 -124 136 -70 102 -115 202 -143 321 l-24 102 27 0
c25 0 33 -15 147 -278z m5070 258 c19 0 34 -4 34 -8 0 -11 -230 -52 -287 -52
-41 0 -42 -1 -46 -37 -3 -28 -4 -23 -5 20 l-2 57 68 1 c37 0 92 7 122 14 30 6
61 11 68 9 8 -2 29 -4 48 -4z m3554 -24 c0 -19 -7 -39 -16 -47 -14 -11 -18
-10 -30 6 -8 10 -14 27 -14 37 0 13 -8 18 -27 20 -24 1 12 9 75 16 7 1 12 -11
12 -32z m52 -50 c-4 -79 -20 -155 -21 -91 0 17 -3 63 -7 104 -6 68 -6 73 12
69 17 -3 19 -12 16 -82z m-9009 67 c-7 -2 -19 -2 -25 0 -7 3 -2 5 12 5 14 0
19 -2 13 -5z m1479 -88 c21 -99 21 -100 6 -87 -7 5 -32 16 -55 23 -49 14 -47
10 -31 81 6 29 11 57 10 61 -1 5 10 7 25 5 26 -3 29 -8 45 -83z m6087 69 c15
-13 -108 -83 -210 -118 -73 -26 -75 -24 -83 49 -4 36 -4 71 0 76 6 10 282 3
293 -7z m1154 1 c3 -7 23 -23 44 -34 l38 -20 -43 -1 c-45 0 -112 25 -112 41 0
6 -10 14 -22 19 -18 7 -11 9 33 9 41 1 58 -3 62 -14z m-8896 -17 c-3 -8 -6 -5
-6 6 -1 11 2 17 5 13 3 -3 4 -12 1 -19z m5700 16 c-3 -3 -12 -4 -19 -1 -8 3
-5 6 6 6 11 1 17 -2 13 -5z m2113 -13 c0 -10 -9 -30 -20 -44 -14 -18 -25 -59
-36 -139 -9 -62 -21 -117 -26 -123 -12 -12 -3 83 18 195 13 65 17 90 23 123 0
4 10 7 21 7 13 0 20 -7 20 -19z m778 12 c-10 -2 -28 -2 -40 0 -13 2 -5 4 17 4
22 1 32 -1 23 -4z m-2941 -19 c9 -23 -14 -64 -36 -64 -10 0 -24 7 -31 15 -10
12 -9 20 4 40 18 28 53 33 63 9z m2380 9 c-20 -2 -35 -8 -32 -13 3 -5 0 -18
-6 -29 -10 -15 -15 -16 -25 -6 -7 7 -12 22 -11 34 1 19 7 21 57 19 43 -1 47
-2 17 -5z m311 0 c-10 -2 -28 -2 -40 0 -13 2 -5 4 17 4 22 1 32 -1 23 -4z
m-4879 -82 c75 -49 82 -56 76 -80 -3 -14 -33 -123 -67 -243 -54 -193 -62 -217
-83 -220 -25 -5 -33 5 -77 95 -15 31 -33 57 -39 57 -16 0 -7 50 43 245 22 88
41 172 42 187 1 15 5 23 11 20 6 -4 48 -31 94 -61z m4731 46 c0 -34 -32 -123
-77 -214 -60 -120 -63 -123 -103 -122 -25 1 -28 3 -11 6 18 4 34 27 76 116 56
120 80 185 72 194 -9 9 -150 -181 -217 -294 -13 -21 -25 -33 -27 -27 -4 13 86
167 146 248 45 60 105 116 126 116 9 0 15 -10 15 -23z m-3805 4 c7 -12 -51
-24 -91 -19 l-29 4 35 11 c45 14 77 16 85 4z m1145 -12 c0 -6 -4 -7 -10 -4 -5
3 -10 11 -10 16 0 6 5 7 10 4 6 -3 10 -11 10 -16z m507 -27 c60 -59 83 -115
94 -234 12 -123 23 -171 46 -189 14 -12 16 -12 8 1 -8 15 8 3 62 -44 l22 -19
-32 -21 c-38 -25 -86 -109 -87 -149 0 -45 25 -91 71 -131 58 -50 108 -75 183
-91 33 -7 56 -14 49 -14 -6 -1 -18 -8 -26 -16 -13 -13 -38 -7 -209 51 -106 36
-196 68 -201 73 -4 4 4 24 18 45 68 101 64 118 -18 66 -44 -28 -51 -40 -50
-87 1 -14 -19 -18 -30 -7 -3 4 0 19 8 33 13 27 13 27 -14 23 -29 -4 -28 -6
-59 73 -2 6 0 5 5 -1 11 -15 50 -27 63 -19 7 4 -2 28 -21 62 -31 55 -32 58
-21 112 13 61 32 87 57 77 13 -5 15 -16 11 -63 -6 -62 16 -142 42 -151 11 -3
10 3 -2 26 -20 39 -20 99 0 198 34 163 2 306 -75 340 -30 13 -37 21 -33 36 4
16 66 54 93 57 4 1 24 -16 46 -37z m3033 13 c0 -18 -32 -28 -41 -13 -4 7 -3
18 2 25 12 14 39 6 39 -12z m-3734 4 c10 -17 -13 -36 -27 -22 -12 12 -4 33 11
33 5 0 12 -5 16 -11z m141 -5 c3 -8 -2 -23 -11 -32 -15 -15 -17 -15 -32 -1
-14 15 -14 18 1 33 21 20 34 20 42 0z m-1214 0 c3 -3 3 -12 0 -20 -5 -15 -40
-18 -69 -7 -14 5 -11 9 17 19 41 15 44 16 52 8z m1443 -50 c-7 -19 -36 -6 -36
17 0 10 8 22 18 28 13 8 18 6 20 -10 2 -11 1 -27 -2 -35z m-1275 20 c23 -25
23 -26 2 -13 -13 7 -25 19 -27 26 -8 19 -2 16 25 -13z m-1651 -4 c0 -5 -4 -10
-10 -10 -5 0 -10 5 -10 10 0 6 5 10 10 10 6 0 10 -4 10 -10z m1400 -5 c7 -9
19 -14 27 -11 24 10 27 -24 4 -54 -11 -16 -21 -32 -21 -35 0 -11 81 -85 93
-86 7 -1 -4 -5 -23 -10 -19 -5 -94 -6 -166 -3 l-132 7 -4 46 c-2 25 -2 64 0
87 l4 41 96 15 c54 8 100 16 103 17 4 0 12 -6 19 -14z m-1784 -25 c17 0 64
-24 64 -34 0 -4 -22 -42 -50 -83 -27 -41 -50 -84 -51 -96 0 -12 -2 -60 -4
-107 -2 -60 -11 -107 -29 -160 -14 -41 -26 -83 -26 -92 0 -29 -189 -168 -228
-168 -10 0 -27 6 -37 14 -19 14 -19 16 -2 50 12 27 23 36 41 36 25 0 37 -15
28 -37 -2 -7 -13 -13 -23 -13 -10 0 -19 -5 -19 -11 0 -6 12 -9 28 -7 21 2 28
9 30 31 10 84 -92 69 -113 -16 -8 -29 15 -67 40 -67 14 0 27 -38 19 -52 -3 -4
-13 -8 -22 -8 -9 0 -29 -7 -44 -14 -15 -8 -30 -11 -33 -6 -3 5 -3 37 0 72 2
35 10 135 16 223 l11 160 89 154 88 155 82 52 c76 49 82 51 107 38 15 -8 32
-14 38 -14z m3209 -5 c0 -25 -33 -31 -59 -12 -26 19 -11 39 27 35 24 -2 32 -8
32 -23z m95 -35 c0 -28 -2 -30 -20 -20 -30 16 -25 50 7 50 8 0 13 -12 13 -30z
m-1290 -3 c0 -7 -11 -25 -24 -42 -20 -24 -28 -28 -42 -19 -27 16 -28 33 -2 43
13 5 30 16 37 25 14 17 31 13 31 -7z m90 -2 c13 -14 21 -25 18 -25 -2 0 -15
11 -28 25 -13 14 -21 25 -18 25 2 0 15 -11 28 -25z m1040 -1 c0 -16 -26 -19
-35 -4 -3 6 -4 14 0 20 8 13 35 1 35 -16z m-99 1 c1 -16 -16 -16 -36 0 -19 15
-19 15 8 13 15 -2 28 -7 28 -13z m2026 -52 c-3 -10 -5 -2 -5 17 0 19 2 27 5
18 2 -10 2 -26 0 -35z m1158 37 c3 -5 1 -10 -4 -10 -6 0 -11 5 -11 10 0 6 2
10 4 10 3 0 8 -4 11 -10z m-3291 -31 c-8 -13 -24 -1 -24 18 0 13 3 13 15 3 8
-7 12 -16 9 -21z m-5357 -1 c-3 -8 -6 -5 -6 6 -1 11 2 17 5 13 3 -3 4 -12 1
-19z m5500 7 c7 -20 -2 -29 -21 -22 -9 4 -13 13 -10 22 8 19 23 19 31 0z
m-2312 -10 c36 -10 52 -11 62 -3 16 13 16 -1 0 -97 -11 -61 -16 -72 -40 -83
-26 -12 -33 -10 -99 28 -70 40 -72 41 -150 36 -43 -3 -82 -7 -87 -11 -16 -9
-23 13 -11 36 9 16 18 20 38 15 149 -34 174 -28 204 44 11 27 24 50 28 50 4 0
29 -7 55 -15z m2465 0 c0 -8 -9 -15 -20 -15 -22 0 -27 15 -7 23 21 9 27 7 27
-8z m252 -41 c-2 -21 -9 -51 -17 -67 -7 -15 -19 -52 -26 -82 -13 -58 -23 -63
-34 -16 -4 21 4 57 27 120 34 94 55 113 50 45z m-1311 9 c13 -14 18 -23 12
-19 -7 4 -13 3 -13 -2 0 -14 -39 -22 -46 -10 -3 5 1 17 10 27 9 10 13 21 9 24
-3 4 -4 7 -1 7 2 0 15 -12 29 -27z m-4489 -63 c128 -57 186 -101 221 -170 15
-30 30 -72 34 -92 4 -26 11 -38 22 -38 25 0 113 -54 146 -90 l30 -33 -34 7
c-18 3 -60 6 -92 6 l-59 0 -24 48 c-17 31 -25 40 -26 27 -1 -33 -29 -445 -36
-523 l-6 -73 -27 24 c-14 13 -62 51 -106 82 -44 32 -113 83 -154 113 l-73 55
7 106 c4 58 9 110 12 114 3 5 13 -4 23 -20 29 -48 108 -108 146 -110 27 -2 38
4 62 35 66 84 86 169 62 267 -16 65 -79 137 -182 204 -62 41 -68 48 -68 79 0
23 4 33 13 29 6 -3 55 -24 109 -47z m9065 18 c-3 -8 -6 -5 -6 6 -1 11 2 17 5
13 3 -3 4 -12 1 -19z m-7706 -24 c30 -9 70 -24 90 -34 41 -21 135 -103 150
-132 9 -16 4 -15 -31 8 -53 35 -124 43 -185 20 -85 -33 -127 -117 -106 -211 9
-42 9 -59 -5 -99 l-16 -48 -45 44 c-96 93 -113 188 -56 310 34 73 106 158 132
158 10 0 42 -7 72 -16z m2521 -26 c-7 -7 -12 -8 -12 -2 0 14 12 26 19 19 2 -3
-1 -11 -7 -17z m4756 15 c-10 -2 -26 -2 -35 0 -10 3 -2 5 17 5 19 0 27 -2 18
-5z m85 0 c-7 -2 -19 -2 -25 0 -7 3 -2 5 12 5 14 0 19 -2 13 -5z m-4668 -21
c-3 -3 -11 0 -18 7 -9 10 -8 11 6 5 10 -3 15 -9 12 -12z m4798 11 c-7 -2 -19
-2 -25 0 -7 3 -2 5 12 5 14 0 19 -2 13 -5z m-6166 -9 c-3 -3 -12 -4 -19 -1 -8
3 -5 6 6 6 11 1 17 -2 13 -5z m-91 -39 c-26 -19 -42 -19 -26 0 7 8 20 15 29
15 13 -1 13 -3 -3 -15z m5027 8 c-7 -2 -21 -2 -30 0 -10 3 -4 5 12 5 17 0 24
-2 18 -5z m-4018 -39 c70 -13 105 -31 105 -53 0 -3 -33 -7 -72 -9 -40 -2 -106
-10 -147 -17 -41 -8 -76 -13 -78 -11 -2 2 4 28 13 58 l17 56 41 -5 c23 -2 77
-11 121 -19z m889 14 c91 -28 151 -135 126 -227 -21 -78 -97 -141 -171 -141
-28 0 -30 -2 -19 -17 7 -10 -24 19 -69 64 -75 76 -81 80 -81 55 l-1 -27 -16
30 c-26 47 -21 125 11 179 27 46 45 61 101 83 40 15 69 16 119 1z m-1459 -62
l110 -63 62 -114 63 -114 -6 -100 c-5 -93 -9 -107 -50 -192 -25 -51 -52 -97
-62 -101 -9 -5 -79 -28 -156 -52 l-138 -42 -142 28 -141 27 -82 65 -81 64 -23
91 c-21 86 -22 97 -10 197 12 98 16 109 59 178 45 69 51 74 144 122 85 44 107
51 185 59 155 15 148 16 268 -53z m5002 -28 c-2 -13 -4 -3 -4 22 0 25 2 35 4
23 2 -13 2 -33 0 -45z m-6597 12 c10 -5 23 -24 29 -41 8 -24 15 -30 28 -24 47
19 91 17 112 -4 11 -11 21 -28 21 -37 0 -19 -99 -125 -154 -165 -57 -42 -73
-38 -100 24 -34 76 -45 140 -34 190 13 60 50 82 98 57z m6988 -87 l-3 -28
-105 6 -105 5 103 2 102 2 1 48 c1 28 4 36 6 20 2 -15 3 -40 1 -55z m-8561 45
c-3 -8 -6 -5 -6 6 -1 11 2 17 5 13 3 -3 4 -12 1 -19z m3853 10 c0 -7 3 -24 7
-37 4 -14 2 -22 -3 -18 -6 3 -16 2 -24 -3 -10 -6 -24 1 -47 21 -46 39 -72 38
-64 -5 1 -5 -8 -15 -19 -23 -27 -19 -23 -63 7 -78 l22 -11 -27 -45 c-15 -24
-38 -59 -52 -78 -28 -37 -169 -161 -182 -161 -5 0 -6 45 -2 103 5 85 4 109 -9
134 -16 29 -15 31 2 26 28 -7 49 22 62 87 13 67 10 65 128 85 103 18 201 19
201 3z m2010 -5 c-1 -18 -18 -35 -24 -24 -4 6 -4 16 -1 21 7 12 25 13 25 3z
m-5662 -82 c13 -43 14 -113 2 -151 -6 -18 -8 -6 -9 43 -1 39 -9 91 -21 124
-18 52 -18 55 -1 39 10 -9 23 -34 29 -55z m5119 -18 c-2 -16 -4 -5 -4 22 0 28
2 40 4 28 2 -13 2 -35 0 -50z m553 35 c0 -18 -2 -20 -9 -8 -6 8 -7 18 -5 22 9
14 14 9 14 -14z m490 -3 c10 -12 9 -15 -7 -15 -47 0 -103 -78 -103 -144 0 -72
115 -156 213 -156 40 0 53 5 78 29 42 42 41 106 -1 154 -35 40 -38 51 -10 42
10 -3 90 -19 176 -35 191 -36 417 -108 471 -152 21 -17 37 -34 36 -39 -2 -5 3
-9 10 -9 7 0 37 -21 66 -47 l53 -48 -37 -55 c-20 -30 -41 -57 -47 -59 -12 -4
47 85 62 94 13 8 13 25 1 25 -6 0 -29 -27 -52 -60 -23 -33 -54 -65 -70 -72
-33 -15 -29 -28 9 -28 20 0 43 17 92 70 l66 71 19 -21 c13 -15 15 -20 5 -18
-8 2 -30 -24 -54 -65 -40 -66 -42 -68 -74 -63 -29 4 -32 3 -22 -9 31 -37 72
-12 128 79 l30 50 1 -160 1 -160 -153 -124 c-105 -84 -168 -127 -198 -136 -24
-7 -45 -11 -48 -9 -2 3 -12 28 -21 56 -15 42 -19 48 -27 34 -8 -14 -12 -8 -23
30 -7 26 -24 62 -37 81 -29 43 -29 44 3 44 35 0 128 47 170 87 19 18 43 52 54
75 22 48 24 44 20 -63 -1 -51 3 -88 14 -114 9 -21 14 -40 12 -43 -3 -2 -23 10
-45 27 l-40 32 -19 -38 c-22 -43 -43 -130 -41 -171 1 -15 7 5 14 43 17 92 40
149 57 139 7 -5 28 -18 47 -31 54 -37 64 -30 36 23 -19 37 -25 62 -25 114 0
37 2 69 5 72 3 3 23 -4 45 -14 55 -28 100 -18 151 33 21 21 39 45 39 51 0 7
-14 -4 -31 -25 -56 -68 -112 -81 -174 -41 -28 18 -48 57 -63 121 -8 36 -6 48
15 92 23 46 24 54 12 83 -21 50 -77 106 -117 118 -88 24 -180 4 -251 -55 -31
-27 -33 -32 -29 -77 4 -40 12 -57 44 -89 21 -21 33 -39 28 -39 -18 0 -75 22
-70 27 2 3 -2 23 -10 45 -20 58 -18 77 20 166 l34 80 -38 17 c-22 10 -45 15
-53 12 -8 -3 -29 -39 -47 -80 -30 -68 -66 -108 -97 -107 -4 0 0 5 10 11 27 16
47 71 47 128 0 54 -14 101 -29 101 -6 0 -4 -15 5 -35 34 -82 6 -171 -61 -193
-99 -32 -270 57 -311 163 -15 41 -15 46 1 90 19 49 74 105 104 105 10 0 24 -7
31 -15z m-4563 -12 c1 -10 4 -34 8 -53 4 -19 6 -45 6 -58 -1 -13 10 -48 24
-78 14 -30 25 -58 25 -63 0 -12 -169 -51 -222 -51 -56 0 -174 35 -181 54 -3 7
-8 39 -11 72 -5 42 -3 53 3 37 15 -34 88 -67 146 -66 106 1 185 80 185 184 0
38 14 57 17 22z m628 -13 c3 -5 -1 -10 -10 -10 -9 0 -13 5 -10 10 3 6 8 10 10
10 2 0 7 -4 10 -10z m3290 -178 c-3 -3 -22 2 -41 12 -20 9 -38 15 -41 12 -8
-8 37 -86 57 -98 25 -16 26 -38 2 -31 -10 2 -24 20 -31 40 -18 48 -48 78 -65
64 -11 -9 -14 2 -19 51 -3 35 -9 72 -12 84 -6 19 -2 22 55 27 34 4 69 11 78
16 15 9 17 0 20 -81 1 -50 0 -93 -3 -96z m2701 172 l142 -6 6 -52 c13 -108 6
-166 -20 -166 -7 0 -24 -11 -36 -23 -13 -13 -46 -32 -72 -42 -41 -16 -56 -17
-102 -7 -97 20 -139 70 -132 157 2 29 -1 45 -8 45 -8 0 -11 -20 -10 -60 2 -70
23 -105 82 -135 21 -11 41 -21 43 -22 2 -2 -15 -19 -38 -40 -46 -40 -97 -128
-81 -138 6 -4 17 1 26 9 20 20 91 39 120 32 19 -5 25 -2 29 17 8 30 62 57 113
57 56 0 72 -16 23 -23 -54 -7 -115 -38 -119 -60 -3 -15 0 -18 16 -13 11 4 23
2 27 -4 3 -5 1 -10 -6 -10 -9 0 -10 -3 -3 -10 15 -15 134 -25 134 -11 0 6 -7
11 -15 11 -8 0 -15 6 -15 14 0 18 51 31 60 16 11 -19 12 -153 1 -146 -5 4 -46
7 -91 8 -71 0 -84 -2 -105 -22 -21 -20 -31 -22 -71 -16 -26 3 -63 15 -81 26
-44 26 -52 25 -55 -2 -2 -13 -5 108 -8 267 -3 160 -3 307 -1 328 l3 39 52 -6
c28 -3 115 -8 192 -12z m-8429 -16 c-3 -8 -6 -5 -6 6 -1 11 2 17 5 13 3 -3 4
-12 1 -19z m6434 -5 c13 -17 13 -17 -6 -3 -11 8 -22 16 -24 17 -2 2 0 3 6 3 6
0 17 -8 24 -17z m-4004 -15 c-3 -8 -6 -5 -6 6 -1 11 2 17 5 13 3 -3 4 -12 1
-19z m2534 5 c13 -16 12 -17 -3 -4 -10 7 -18 15 -18 17 0 8 8 3 21 -13z m581
-43 c26 -84 23 -142 -8 -179 -14 -17 -32 -31 -39 -31 -24 0 -45 31 -45 66 0
32 -2 34 -25 28 -53 -13 -77 51 -31 81 37 24 68 5 65 -40 -4 -39 15 -65 47
-65 29 0 31 21 4 38 -13 8 -20 23 -20 44 0 33 -24 68 -46 68 -7 0 -15 4 -19
10 -8 13 45 40 75 37 20 -2 27 -11 42 -57z m813 30 c3 -5 1 -10 -4 -10 -6 0
-11 5 -11 10 0 6 2 10 4 10 3 0 8 -4 11 -10z m-5569 -22 c4 -7 0 -16 -11 -22
-10 -6 -29 -22 -42 -35 -51 -53 -14 -161 51 -149 34 7 33 -6 -3 -31 -42 -30
-57 -26 -91 21 -46 63 -39 116 26 187 37 42 57 50 70 29z m4554 -27 c-5 -11
-14 -22 -18 -25 -13 -8 -11 28 2 36 20 14 27 8 16 -11z m-2911 -27 c21 -15 23
-21 16 -79 -4 -42 -1 -83 10 -130 8 -37 13 -71 9 -74 -10 -10 -64 61 -101 136
-38 78 -39 107 -3 143 24 24 38 25 69 4z m2392 -3 c-13 -3 -29 -13 -34 -22
-14 -23 12 -71 48 -88 23 -12 26 -16 12 -19 -27 -6 -77 48 -77 83 0 38 16 55
50 54 l25 -1 -24 -7z m-4038 -13 c2 -7 -3 -18 -12 -25 -13 -10 -14 -15 -4 -32
14 -22 7 -54 -11 -48 -18 6 -24 60 -9 90 14 29 29 35 36 15z m3570 -4 c7 -7
-21 -54 -32 -54 -4 0 -6 14 -3 30 4 28 20 39 35 24z m723 -26 l29 -33 -32 29
c-18 17 -33 31 -33 33 0 8 8 1 36 -29z m1305 9 c-13 -13 -26 -3 -16 12 3 6 11
8 17 5 6 -4 6 -10 -1 -17z m-5902 -16 c37 -35 39 -51 8 -51 -17 0 -28 10 -40
35 -9 20 -17 38 -17 40 0 13 21 2 49 -24z m6281 5 c0 -11 -63 -136 -67 -133
-2 3 8 33 22 67 36 86 24 87 -19 2 -19 -38 -47 -79 -61 -91 -30 -23 -135 -65
-143 -56 -9 9 2 14 74 38 l69 22 43 88 c39 79 45 86 62 77 11 -6 20 -12 20
-14z m-4458 -50 c-8 -98 51 -177 151 -201 15 -4 27 -11 27 -16 0 -28 -171 14
-215 52 -18 16 -48 36 -68 44 -23 9 -38 24 -45 45 -6 16 -8 30 -3 30 4 0 41
22 82 50 40 27 74 50 75 50 0 0 -1 -24 -4 -54z m3428 2 c0 -36 -12 -35 -44 3
-35 41 -33 48 9 35 29 -9 35 -16 35 -38z m840 27 c0 -8 -4 -15 -10 -15 -5 0
-10 7 -10 15 0 8 5 15 10 15 6 0 10 -7 10 -15z m-920 -47 l19 -43 -35 -18
c-47 -24 -36 -34 16 -13 55 22 60 21 59 -16 -2 -66 -11 -80 -63 -95 -42 -12
-51 -12 -71 1 -22 14 -23 14 -17 -7 7 -28 43 -62 68 -63 10 0 34 -4 52 -8 21
-5 32 -4 32 3 0 6 -12 11 -27 11 -16 0 -46 9 -68 19 l-40 18 44 7 c24 3 57 14
73 22 16 9 31 14 32 12 1 -2 0 -32 -2 -68 l-4 -65 -57 -28 -56 -29 -63 16
c-34 9 -68 16 -75 15 -39 -5 -147 2 -143 10 3 5 43 9 88 10 122 2 125 21 3 21
-54 0 -95 3 -92 7 4 3 15 7 25 8 9 1 30 7 45 14 16 6 34 11 42 11 17 0 75 48
75 62 0 6 -9 -1 -21 -16 -13 -16 -30 -26 -46 -26 -14 0 -56 -8 -92 -19 -102
-29 -175 -44 -195 -40 -11 3 5 12 40 24 32 11 89 36 126 57 37 21 69 38 72 38
3 0 7 -12 9 -27 4 -28 4 -28 6 3 1 34 17 54 43 54 10 0 17 4 16 8 -3 9 143
171 155 172 4 0 17 -19 27 -42z m-1623 -70 c-2 -18 -4 -4 -4 32 0 36 2 50 4
33 2 -18 2 -48 0 -65z m3048 50 c38 -25 75 -84 75 -117 0 -85 -109 -156 -202
-133 -49 13 -64 8 -24 -8 39 -15 111 -12 153 5 l35 15 -4 -59 c-7 -101 -89
-189 -189 -206 -47 -8 -160 11 -186 31 -16 12 -14 13 20 14 26 0 37 -4 37 -15
0 -9 9 -15 21 -15 12 0 19 5 16 13 -5 15 10 47 24 47 6 0 7 -4 4 -10 -3 -5 -1
-10 4 -10 6 0 11 6 11 13 0 7 15 18 33 25 62 23 62 23 20 105 -31 64 -41 76
-58 72 -11 -3 -14 -2 -7 1 8 4 -4 20 -33 47 -61 56 -70 100 -28 146 61 69 205
89 278 39z m-1874 -81 c-19 -58 -101 -73 -101 -19 l-1 27 -13 -24 c-13 -23
-13 -23 -29 18 -10 23 -17 44 -17 48 0 3 17 3 38 1 36 -5 39 -3 50 26 l12 31
36 -37 c35 -34 36 -37 25 -71z m3391 2 c2 -56 0 -103 -4 -106 -5 -2 -8 18 -8
45 0 50 -18 81 -40 67 -5 -3 -10 -2 -10 3 0 16 41 92 50 92 5 0 10 -45 12
-101z m-3916 49 l29 -33 -32 29 c-18 17 -33 31 -33 33 0 8 8 1 36 -29z m-3112
-5 c34 -8 81 -13 108 -11 42 5 48 3 41 -11 -13 -28 -8 -87 10 -115 25 -38 95
-86 115 -79 11 5 5 11 -25 24 -45 19 -93 79 -93 117 0 54 51 92 124 92 30 0
36 -4 41 -25 16 -80 19 -74 -25 -68 -36 5 -39 4 -46 -22 -6 -24 -1 -34 34 -67
23 -21 50 -38 60 -38 19 0 42 -54 59 -140 6 -32 5 -34 -10 -21 -16 13 -36 12
-94 -5 -18 -5 -23 0 -32 33 -6 21 -11 50 -11 66 0 15 -2 27 -5 27 -22 0 -89
-47 -118 -82 l-35 -42 -21 24 c-30 37 -29 41 19 44 23 2 18 31 -6 34 -11 2
-32 -6 -45 -17 -23 -19 -23 -21 -9 -48 20 -37 100 -76 154 -75 23 0 73 8 110
17 66 17 69 17 94 -2 18 -13 30 -36 38 -74 7 -30 11 -55 9 -57 -1 -2 -40 5
-86 14 -101 21 -133 15 -147 -26 -6 -16 -14 -30 -17 -30 -23 0 -43 24 -49 59
-5 36 -10 40 -53 55 -25 9 -57 16 -70 16 -15 0 -24 7 -28 23 -24 102 -37 169
-55 277 -11 69 -23 134 -27 144 -4 15 -2 18 13 12 11 -4 46 -14 78 -23z m3436
12 c0 -13 -51 -105 -58 -105 -7 0 -52 79 -52 92 0 3 8 9 18 11 25 7 92 8 92 2z
m-150 -17 c0 -16 -24 -86 -32 -94 -8 -7 -67 57 -68 73 0 6 19 16 43 21 58 13
57 13 57 0z m3646 -18 c1 -35 -2 -36 -28 -13 -18 16 -18 17 4 30 13 7 23 12
23 13 0 0 0 -14 1 -30z m-4086 -60 l0 -81 -32 17 c-18 9 -34 17 -35 18 -10 8
50 123 65 126 1 0 2 -36 2 -80z m630 30 c11 -21 20 -41 20 -43 0 -9 -45 -16
-68 -10 -18 4 -21 10 -16 27 7 22 34 66 40 66 2 0 13 -18 24 -40z m-1133 8
c-3 -8 -6 -5 -6 6 -1 11 2 17 5 13 3 -3 4 -12 1 -19z m998 -28 c14 -22 25 -42
25 -45 0 -3 -20 -5 -45 -5 -25 0 -45 3 -45 8 0 22 22 82 30 82 6 0 21 -18 35
-40z m-4104 8 c24 6 45 9 47 7 2 -2 -6 -36 -17 -77 l-21 -73 23 -17 c16 -13
233 -161 256 -175 2 -1 -4 -21 -12 -45 -8 -24 -23 -71 -32 -105 l-18 -62 -59
41 c-33 22 -113 85 -179 139 l-119 99 0 48 c0 45 14 157 26 215 6 27 6 27 34
11 23 -14 35 -15 71 -6z m1386 1 c65 -24 112 -98 85 -134 -12 -17 -59 -38 -98
-44 -47 -8 -58 -31 -15 -31 69 0 141 55 141 106 0 13 6 24 13 24 23 0 37 -16
36 -41 0 -13 6 -43 15 -67 9 -23 14 -53 12 -65 -3 -12 -7 -53 -10 -92 l-5 -70
17 32 c9 17 38 70 65 117 26 47 47 95 47 106 0 11 3 20 8 20 4 0 46 -31 94
-69 83 -66 140 -91 203 -91 18 0 19 -11 3 -45 -11 -24 -14 -25 -70 -19 l-58 7
-16 -39 c-9 -22 -23 -64 -31 -94 -7 -30 -19 -58 -26 -62 -24 -16 -81 -27 -91
-19 -6 5 -40 15 -76 21 -70 14 -173 68 -190 101 -8 15 -7 19 3 19 40 0 41 69
1 84 -25 9 -30 -1 -11 -22 22 -24 21 -39 -2 -45 -27 -7 -41 11 -41 52 0 39
-28 103 -47 109 -7 2 -18 -8 -24 -22 -16 -33 -26 -25 -34 27 -3 23 -8 49 -11
58 -3 12 2 15 25 11 23 -3 36 2 56 22 25 25 26 29 12 49 -16 25 -65 34 -96 18
-16 -9 -20 -7 -25 17 -4 15 -9 36 -12 47 -4 16 -3 17 5 5 9 -13 12 -13 23 1
23 30 75 37 125 18z m3196 -5 l42 6 -30 -20 c-33 -23 -101 -60 -110 -60 -3 0
-5 14 -5 31 0 27 2 30 15 19 13 -11 15 -8 15 15 0 23 2 26 15 15 10 -8 30 -10
58 -6z m-613 -29 c19 -19 32 -35 29 -35 -3 0 -20 16 -39 35 -19 19 -32 35 -29
35 3 0 20 -16 39 -35z m1896 -11 c-3 -9 -6 -18 -6 -20 0 -2 -7 -4 -15 -4 -13
0 -13 3 -3 20 15 24 33 27 24 4z m1904 -19 c0 -22 -4 -25 -35 -25 -28 0 -35 4
-35 19 0 15 8 21 33 24 17 2 33 5 35 5 1 1 2 -9 2 -23z m-8613 -7 c-3 -8 -6
-5 -6 6 -1 11 2 17 5 13 3 -3 4 -12 1 -19z m8533 -2 c0 -16 -21 -26 -56 -26
-32 0 -30 16 4 28 39 15 52 14 52 -2z m-4136 -21 c20 -8 39 -15 43 -14 9 1 22
-33 17 -43 -3 -4 -23 4 -47 18 -23 13 -53 24 -67 24 -24 1 -24 1 -6 15 24 18
16 18 60 0z m-467 -17 c-3 -8 -6 -5 -6 6 -1 11 2 17 5 13 3 -3 4 -12 1 -19z
m272 13 c-50 -5 -87 -14 -112 -29 l-37 -21 0 27 c0 16 3 22 8 15 6 -9 17 -9
47 2 22 8 69 14 105 13 l65 -1 -76 -6z m-4189 -21 c-24 -15 -36 -11 -14 4 10
8 21 12 24 10 2 -3 -2 -9 -10 -14z m1290 6 c26 -8 45 -19 44 -27 -1 -8 -27
-107 -59 -221 l-58 -207 -48 -16 c-55 -18 -89 -13 -89 15 0 10 15 62 34 117
51 148 106 323 106 339 0 17 13 17 70 0z m2913 -22 c-57 -27 -127 -99 -150
-153 -8 -18 -17 -30 -20 -27 -4 3 16 49 43 101 52 100 53 101 134 103 l45 1
-52 -25z m4347 11 c0 -10 -11 -15 -35 -15 -24 0 -35 5 -35 15 0 10 11 15 35
15 24 0 35 -5 35 -15z m-7605 -31 c17 -14 21 -21 10 -15 -30 14 -61 40 -50 41
6 0 24 -12 40 -26z m3314 12 c-49 -17 -99 -49 -129 -82 l-25 -27 39 7 c60 11
163 -3 189 -26 l22 -20 -25 7 c-116 28 -129 29 -195 13 -36 -8 -65 -13 -65
-11 0 3 18 27 40 53 41 49 126 100 164 100 14 -1 8 -5 -15 -14z m814 -20 c-3
-19 -1 -36 6 -40 20 -13 13 -56 -11 -65 -19 -7 -26 -3 -40 21 -23 36 -23 41 2
26 10 -7 22 -9 26 -6 11 11 -5 26 -36 33 -37 8 -44 19 -30 45 8 15 21 20 50
20 38 0 39 0 33 -34z m60 -18 c8 -18 22 -53 31 -77 15 -43 15 -46 -6 -68 -24
-26 -18 -43 9 -22 16 13 16 13 0 -11 -9 -13 -17 -32 -17 -41 0 -9 -6 -19 -14
-22 -12 -5 -15 8 -15 63 0 38 -5 78 -10 89 -6 11 -8 26 -5 34 3 9 -2 29 -10
46 -20 38 -20 41 2 41 11 0 25 -13 35 -32z m-1086 -15 c-3 -10 -5 -4 -5 12 0
17 2 24 5 18 2 -7 2 -21 0 -30z m-3925 -15 c31 -24 76 -60 102 -82 35 -29 52
-37 72 -33 24 4 54 -14 54 -34 0 -13 -14 -11 -28 3 -10 10 -17 10 -33 0 -20
-13 -37 -6 -69 28 -3 3 -17 15 -33 27 -30 23 -62 20 -130 -12 -45 -21 -66 -74
-49 -124 6 -17 7 -33 3 -35 -12 -8 -53 17 -74 45 -18 25 -18 32 -7 100 6 41
13 81 16 90 4 13 96 69 114 69 4 0 32 -19 62 -42z m4262 -7 c15 -16 21 -18 28
-9 5 9 8 5 8 -10 0 -22 -2 -22 -45 14 -25 20 -45 38 -45 41 0 8 36 -16 54 -36z
m625 -37 c19 -43 7 -37 -29 12 -30 43 -31 45 -8 30 14 -9 30 -28 37 -42z m256
40 c-78 -17 -95 -17 -95 1 0 12 15 15 78 14 l77 -1 -60 -14z m-3421 -65 c6
-36 5 -37 -28 -43 -34 -6 -86 7 -86 21 1 12 21 35 59 67 39 31 41 30 55 -45z
m2501 36 c17 -12 37 -24 45 -28 11 -4 9 -6 -5 -6 -11 0 -38 16 -60 35 -42 38
-32 37 20 -1z m1402 -80 l-2 -116 -103 -96 c-57 -53 -117 -117 -132 -141 -20
-32 -39 -49 -66 -58 -53 -18 -60 -18 -86 9 -59 61 -63 66 -46 80 8 6 44 50 78
97 78 105 203 231 290 292 36 26 66 47 67 47 1 1 1 -51 0 -114z m-417 89 c0
-5 -19 -45 -25 -52 -1 -2 -20 7 -41 20 l-39 23 45 6 c25 3 48 7 53 7 4 1 7 -1
7 -4z m175 -25 c-4 -11 -1 -34 6 -50 9 -23 9 -33 0 -42 -8 -8 -11 -6 -11 10 0
12 -4 25 -10 28 -11 7 -14 58 -3 68 14 14 24 6 18 -14z m105 4 c3 -2 -11 -17
-30 -33 -30 -25 -37 -27 -49 -15 -12 12 -12 19 -3 40 11 23 16 26 45 20 17 -4
34 -9 37 -12z m635 -39 c77 -13 181 -31 230 -40 50 -9 104 -20 121 -25 17 -5
51 -9 77 -9 26 0 47 -3 47 -7 0 -5 -23 -27 -50 -51 -44 -38 -50 -41 -50 -22 0
19 -7 16 -59 -24 -59 -45 -71 -48 -71 -15 0 12 -5 16 -15 13 -9 -4 -15 -1 -15
7 0 8 -10 30 -21 49 -20 32 -23 33 -29 15 -7 -18 -9 -18 -19 8 -6 16 -11 37
-11 48 0 10 -5 19 -11 19 -6 0 -9 -6 -6 -14 3 -8 11 -33 17 -55 12 -46 25 -58
38 -35 7 13 12 8 25 -25 9 -22 26 -50 38 -62 l20 -20 46 37 c33 28 47 34 53
24 6 -10 15 -8 41 10 28 20 45 24 126 25 93 2 94 2 120 -29 32 -38 67 -115 80
-178 l10 -47 -69 -16 c-38 -8 -73 -13 -78 -10 -5 3 -11 1 -14 -3 -3 -5 -38
-15 -78 -22 -66 -11 -102 -9 -333 15 -201 21 -281 33 -359 57 -56 16 -104 32
-107 36 -4 4 -1 48 7 97 15 97 20 247 9 264 -19 32 37 29 290 -15z m-895 27
c0 -5 -9 -19 -20 -32 l-20 -24 17 32 c19 34 23 39 23 24z m-92 -17 c12 -8 33
-37 46 -63 27 -53 61 -160 53 -168 -3 -3 -27 39 -53 92 -26 53 -58 110 -71
126 -28 32 -13 40 25 13z m-818 -4 c0 -5 -8 -10 -17 -10 -15 0 -16 2 -3 10 19
12 20 12 20 0z m4150 -1 c43 -9 50 -14 50 -35 0 -14 -5 -22 -12 -19 -9 4 -14
-10 -15 -45 -1 -45 0 -50 16 -45 17 5 19 -4 26 -98 4 -58 4 -130 0 -162 l-8
-58 -85 7 c-47 3 -88 8 -90 11 -3 2 -11 26 -18 52 -24 91 -82 229 -109 263 -7
8 -15 23 -19 34 -6 18 -5 18 16 2 13 -9 36 -23 52 -32 l29 -16 -6 37 c-6 38
14 75 40 75 7 0 13 6 13 14 0 27 41 32 120 15z m-6402 -21 c6 -13 14 -34 17
-48 6 -23 4 -22 -23 10 -17 19 -28 40 -25 47 8 19 18 16 31 -9z m2006 7 c5 13
15 15 53 9 82 -11 79 -20 -13 -38 -139 -26 -204 -34 -204 -25 0 11 17 21 80
45 47 19 57 20 66 8 10 -13 13 -12 18 1z m906 -40 l-1 -50 -24 30 c-34 41 -33
73 0 71 23 -1 25 -5 25 -51z m180 -84 c48 -94 57 -118 47 -129 -11 -10 -17 1
-36 55 -12 38 -37 91 -55 118 -18 28 -35 60 -39 73 -12 50 24 -2 83 -117z
m-914 77 c-7 -22 -60 -229 -71 -275 -5 -20 5 -28 77 -65 66 -33 78 -43 60 -46
-22 -3 -147 53 -158 70 -5 8 38 207 62 287 8 28 20 51 26 51 6 0 8 -9 4 -22z
m3900 -59 l24 -22 0 26 c0 35 15 35 29 0 6 -16 26 -53 44 -83 45 -75 98 -233
83 -247 -7 -8 -46 17 -46 29 0 7 -10 27 -22 45 -17 24 -31 33 -51 33 -55 0
-112 47 -117 96 -1 10 -2 62 -1 114 1 93 2 94 17 64 9 -18 26 -42 40 -55z
m-7552 55 c3 -8 2 -12 -4 -9 -6 3 -10 10 -10 16 0 14 7 11 14 -7z m5959 -1
c-7 -2 -21 -2 -30 0 -10 3 -4 5 12 5 17 0 24 -2 18 -5z m-2223 -10 c0 -5 -13
-16 -30 -25 -16 -9 -32 -29 -36 -44 -10 -38 15 -107 44 -119 20 -9 22 -16 20
-85 l-2 -75 -3 68 c-4 63 -6 70 -39 100 -29 26 -37 42 -41 79 -5 42 -3 50 25
78 28 28 62 40 62 23z m756 -76 c4 -25 2 -52 -3 -61 -8 -15 -13 -12 -38 20
-17 23 -24 39 -17 42 6 2 16 19 23 39 14 43 26 30 35 -40z m-4869 -14 c-2 -16
-4 -5 -4 22 0 28 2 40 4 28 2 -13 2 -35 0 -50z m3700 35 c-3 -8 -6 -5 -6 6 -1
11 2 17 5 13 3 -3 4 -12 1 -19z m413 -54 c0 -77 0 -77 -18 -53 -31 40 -34 73
-11 103 11 14 22 26 25 26 2 0 4 -34 4 -76z m825 -49 c19 -60 22 -81 14 -92
-20 -23 -41 21 -55 116 -7 47 -13 91 -13 96 0 20 29 -45 54 -120z m-3611 99
c32 -5 35 -9 30 -30 -13 -51 -10 -56 41 -75 28 -9 60 -18 72 -18 24 -1 43 25
43 58 0 26 5 26 115 -8 l90 -28 22 -89 c12 -49 22 -92 23 -96 0 -11 -177 -10
-198 1 -9 5 -69 19 -133 31 l-117 22 -17 77 c-9 42 -21 92 -26 111 -13 49 -11
63 5 57 8 -3 31 -9 50 -13z m1140 1 c19 -4 37 -13 40 -21 3 -7 -8 -61 -25
-119 -16 -59 -26 -111 -23 -117 7 -10 -69 -4 -102 9 -18 7 -18 10 7 106 39
158 40 159 54 153 7 -2 29 -8 49 -11z m86 -57 c-15 -67 -54 -213 -57 -217 -2
-3 -8 0 -14 6 -9 9 -6 36 11 105 30 120 37 138 54 138 11 0 12 -7 6 -32z
m2850 -87 c0 -98 0 -99 -27 -109 -16 -6 -62 -15 -103 -22 -41 -6 -79 -15 -84
-21 -6 -5 -16 -9 -24 -9 -23 0 47 87 142 176 50 46 91 84 93 84 2 0 3 -44 3
-99z m-1563 37 c-3 -7 -5 -2 -5 12 0 14 2 19 5 13 2 -7 2 -19 0 -25z m-4263
-10 c5 -21 3 -28 -9 -28 -15 0 -22 40 -8 53 8 9 9 8 17 -25z m977 -80 c16 -39
8 -43 -40 -18 -37 18 -61 51 -61 81 0 20 89 -35 101 -63z m3228 14 c13 -11 20
-21 15 -24 -11 -7 -114 59 -114 72 0 12 62 -19 99 -48z m-3792 6 c-3 -7 -5 -2
-5 12 0 14 2 19 5 13 2 -7 2 -19 0 -25z m2198 -6 c-3 -3 -11 0 -18 7 -9 10 -8
11 6 5 10 -3 15 -9 12 -12z m100 -33 c-9 -13 -42 -11 -51 3 -4 6 -3 8 2 5 6
-3 16 -2 24 3 16 10 33 3 25 -11z m4390 -9 c19 -36 19 -40 0 -40 -8 0 -15 9
-15 19 0 11 -3 26 -6 35 -11 27 5 17 21 -14z m-6170 -10 c3 -5 1 -10 -4 -10
-6 0 -11 5 -11 10 0 6 2 10 4 10 3 0 8 -4 11 -10z m-968 -22 c-3 -8 -6 -5 -6
6 -1 11 2 17 5 13 3 -3 4 -12 1 -19z m449 -23 c-5 -19 -13 -25 -32 -25 l-26 0
29 33 c30 35 39 32 29 -8z m3011 19 c-3 -3 -12 -4 -19 -1 -8 3 -5 6 6 6 11 1
17 -2 13 -5z m827 -26 c6 -5 2 -8 -11 -8 -17 0 -20 4 -15 22 4 16 7 18 10 8 3
-8 10 -18 16 -22z m4033 0 c-3 -7 -5 -2 -5 12 0 14 2 19 5 13 2 -7 2 -19 0
-25z m-4930 16 c-3 -3 -12 -4 -19 -1 -8 3 -5 6 6 6 11 1 17 -2 13 -5z m-70
-10 c-3 -3 -12 -4 -19 -1 -8 3 -5 6 6 6 11 1 17 -2 13 -5z m-1447 -36 c0 -5
-19 -8 -42 -6 -30 2 -44 8 -46 19 -3 14 3 15 43 6 25 -6 45 -14 45 -19z m1377
26 c-3 -3 -12 -4 -19 -1 -8 3 -5 6 6 6 11 1 17 -2 13 -5z m-2994 -11 c-51 -2
-135 -2 -185 0 -51 1 -10 3 92 3 102 0 143 -2 93 -3z m2884 1 c-3 -3 -12 -4
-19 -1 -8 3 -5 6 6 6 11 1 17 -2 13 -5z m40 0 c-3 -3 -12 -4 -19 -1 -8 3 -5 6
6 6 11 1 17 -2 13 -5z m1276 -1 c-7 -2 -21 -2 -30 0 -10 3 -4 5 12 5 17 0 24
-2 18 -5z m4334 -15 c-3 -8 -6 -5 -6 6 -1 11 2 17 5 13 3 -3 4 -12 1 -19z
m-369 5 c-15 -2 -42 -2 -60 0 -18 2 -6 4 27 4 33 0 48 -2 33 -4z"/>
<path d="M3800 2810 c0 -10 -8 -23 -17 -29 -20 -11 -10 -27 21 -33 27 -4 40
21 27 55 -12 31 -31 36 -31 7z"/>
<path d="M6001 2789 c-27 -30 -26 -43 4 -57 15 -7 25 -20 25 -32 0 -24 17 -26
48 -4 28 20 28 42 0 46 -18 2 -23 10 -23 33 -1 38 -26 44 -54 14z"/>
<path d="M9723 2576 c-30 -31 -30 -76 0 -104 26 -24 66 -29 85 -10 17 17 15
38 -3 38 -19 0 -20 26 0 34 21 8 8 34 -26 51 -35 18 -30 19 -56 -9z m9 -66 c3
-16 3 -30 1 -30 -7 0 -21 45 -16 53 7 13 11 8 15 -23z"/>
<path d="M10000 2520 c0 -5 5 -10 11 -10 5 0 7 5 4 10 -3 6 -8 10 -11 10 -2 0
-4 -4 -4 -10z"/>
<path d="M7020 2170 c-8 -5 -10 -10 -5 -10 6 0 17 5 25 10 8 5 11 10 5 10 -5
0 -17 -5 -25 -10z"/>
<path d="M8365 2451 c-36 -9 -77 -30 -87 -45 -17 -25 -8 -73 20 -98 34 -34
128 -78 165 -78 39 0 92 24 111 51 23 33 21 100 -4 132 -33 41 -122 58 -205
38z m185 -156 c0 -8 -4 -15 -10 -15 -5 0 -10 7 -10 15 0 8 5 15 10 15 6 0 10
-7 10 -15z"/>
<path d="M3961 2114 c-28 -35 -27 -54 2 -54 29 0 60 32 55 57 -5 28 -34 27
-57 -3z"/>
<path d="M9999 1994 c-10 -12 -24 -15 -57 -10 l-44 6 31 -35 c17 -20 31 -40
31 -45 0 -18 17 -10 28 13 6 12 21 37 32 55 17 25 19 32 7 32 -8 0 -21 -7 -28
-16z"/>
<path d="M6535 848 c-55 -16 -106 -34 -112 -40 -7 -6 -22 -40 -33 -77 -35
-114 -130 -510 -130 -541 0 -38 25 -54 121 -81 104 -29 122 -18 149 89 l11 42
59 0 c56 0 60 -2 75 -30 8 -16 15 -35 15 -43 0 -8 9 -26 21 -41 25 -31 52 -33
165 -10 138 27 143 57 45 246 -38 73 -85 183 -105 244 -58 176 -119 276 -166
273 -8 -1 -60 -14 -115 -31z m148 -100 c19 -35 51 -115 72 -178 21 -63 67
-170 102 -238 36 -68 61 -127 57 -131 -9 -8 -114 -31 -139 -31 -7 0 -17 17
-23 38 -7 20 -21 52 -32 70 l-20 32 -108 0 -109 0 -12 -57 c-21 -99 -13 -92
-81 -74 -33 9 -60 19 -60 23 0 12 108 448 125 504 l16 51 87 25 c48 14 88 26
89 27 1 0 17 -27 36 -61z"/>
<path d="M6566 609 c-25 -69 -54 -174 -50 -178 7 -7 154 -15 154 -8 0 10 -57
133 -78 166 -15 24 -23 30 -26 20z"/>
<path d="M5062 851 c-45 -10 -90 -25 -100 -34 -15 -16 -17 -50 -20 -325 -1
-169 0 -317 3 -330 11 -45 61 -55 250 -49 158 4 175 7 235 32 82 36 163 111
186 174 27 76 34 194 16 294 -15 87 -15 88 -66 132 -29 24 -86 60 -127 79 -67
31 -85 35 -184 39 -80 3 -133 0 -193 -12z m358 -97 c133 -67 151 -98 150 -259
0 -115 -18 -169 -73 -222 -74 -71 -127 -86 -319 -91 l-166 -5 1 297 1 296 35
6 c20 3 52 9 71 13 19 4 80 5 135 3 88 -4 108 -8 165 -38z"/>
<path d="M5203 652 l-33 -3 0 -171 0 -171 81 6 c64 5 88 12 113 31 44 33 69
110 60 182 -6 48 -11 58 -48 88 -42 34 -94 46 -173 38z m124 -87 c29 -20 37
-64 22 -116 -10 -32 -20 -45 -46 -55 -62 -26 -63 -24 -63 86 l0 100 33 0 c18
0 42 -7 54 -15z"/>
<path d="M7853 841 c-34 -11 -89 -36 -123 -57 -50 -31 -69 -50 -101 -106 -36
-62 -41 -78 -48 -160 -9 -117 13 -212 61 -268 89 -102 266 -163 409 -141 37 6
102 26 143 45 72 33 76 37 119 110 60 103 74 189 48 292 -31 121 -64 170 -161
239 l-85 60 -100 2 c-74 2 -116 -3 -162 -16z m302 -101 c58 -39 80 -61 99 -98
63 -124 63 -227 1 -338 -30 -54 -41 -64 -93 -88 -88 -39 -154 -49 -237 -36
-85 14 -156 48 -212 103 -52 50 -68 109 -61 223 4 65 10 89 36 134 53 93 170
148 315 149 77 1 78 1 152 -49z"/>
<path d="M7877 619 c-66 -35 -98 -119 -77 -199 14 -50 59 -86 129 -101 46 -10
63 -9 114 7 68 21 91 47 102 122 21 138 -138 240 -268 171z m151 -65 c38 -27
54 -69 42 -113 -8 -32 -16 -40 -49 -49 -38 -12 -89 -8 -124 10 -47 24 -40 125
11 152 36 20 92 20 120 0z"/>
</g>
</svg>
